# xmcd
#
# Track frame offsets: 
#        150
#        10616
#        20308
#        31911
#        43670
#        55713
#        68602
#        81573
#        93257
#        105831
#        116477
#
# Disc length: 1708 seconds
#
# Revision: 0
# Processed by: cddbd v1.5.2PL0 Copyright (c) Steve Scherf et al.
# Submitted via: ExactAudioCopyFreeDBPlugin 1.0
#
DISCID=7506aa0b
DTITLE=George Jones - Nothing Ever Hurt Me (Half As Bad As Losing You)
DYEAR=1973
DGENRE=Country
TTITLE0=Nothing Ever Hurt Me (Half As Bad As Losing You)
TTITLE1=You're Looking At A Happy Man
TTITLE2=Never Having You
TTITLE3=Made For The Blues
TTITLE4=What's Your Mama's Name?
TTITLE5=Mom and Dad's Waltz
TTITLE6=You'll Never Grow Old (To Me)
TTITLE7=What My Woman Can't Do
TTITLE8=My Loving Wife
TTITLE9=Love Lives Again
TTITLE10=Wine (You've Used Me Long Enough)
EXTD=
EXTT0=
EXTT1=
EXTT2=
EXTT3=
EXTT4=
EXTT5=
EXTT6=
EXTT7=
EXTT8=
EXTT9=
EXTT10=
PLAYORDER=
